<svg xmlns="http://www.w3.org/2000/svg" viewBox="0 0 1683.58 987"><defs><style>.cls-1{fill:#0cc000;}.cls-2{fill:#fff;}.cls-3{fill:#019ee3;}</style></defs><title>CAF</title><g id="Capa_3" data-name="Capa 3"><path class="cls-1" d="M695.08,706.45l181.64-.82L942.4,536.05l65.67-169.58,49.81-128.81,115.8,298.23-165.61.32L942.4,705.79l347.41-.16,65.67-169.58L1289.8,366.48l-65.67-169.74-29.51-76.14A146.47,146.47,0,0,0,1058,27h0a146.31,146.31,0,0,0-136.58,93.59l-29.35,76L760.6,536.05h0Z" transform="translate(-118.42 -27)"/><path class="cls-1" d="M694.54,538.35C673,594.21,651.72,649.22,629.41,706.14H581.79c-110.4,0,.94.7-109.46,0-74.26-.47-144.75-14.89-207.54-55.89C192,602.7,146.19,535.81,127.73,451.06c-16.87-77.47-11.45-153.66,21.37-226.44C186.69,141.3,250.86,86.25,335.93,54.82c43.86-16.21,89.23-22,135.88-22.07,110-.29,71.35-1.17,181.33-1.17,2.47,0,104.63,2,107.46,2-22.32,56.62-44.29,116-65.52,170.47l-190.19,1.3-43,.37c-40.78.13-77.52,12.76-108.41,40.11-28,24.76-44.08,56.17-50,92.78-6.31,39.13-2.33,77,16.55,112.41,24.88,46.6,65.16,76.32,112.75,85,12.69,2.12,15.47,2.71,27,3.72,110.19.17,10.86.39,121.05.39C583.55,540.14,691.18,538.35,694.54,538.35Z" transform="translate(-118.42 -27)"/><path class="cls-2" d="M254.55,827.06l17.75,5.63q-4.08,14.84-13.58,22t-24.09,7.21q-18.06,0-29.69-12.34t-11.63-33.74q0-22.63,11.69-35.16t30.74-12.52q16.64,0,27,9.83,6.18,5.81,9.28,16.7L253.93,799a18.73,18.73,0,0,0-19.11-15.21,20.63,20.63,0,0,0-16.36,7.24q-6.28,7.24-6.28,23.44,0,17.19,6.19,24.49a20.08,20.08,0,0,0,16.08,7.3A18.34,18.34,0,0,0,247,841.66Q252.26,837,254.55,827.06Z" transform="translate(-118.42 -27)"/><path class="cls-2" d="M369.77,860.4H349.85l-7.92-20.59H305.69l-7.48,20.59H278.79l35.31-90.67h19.36Zm-33.71-35.87-12.49-33.65-12.25,33.65Z" transform="translate(-118.42 -27)"/><path class="cls-2" d="M379.23,860.4V769.73h27.4l16.45,61.85,16.27-61.85h27.46V860.4h-17V789l-18,71.37H414.17L396.24,789V860.4Z" transform="translate(-118.42 -27)"/><path class="cls-2" d="M485,860.4V769.73h29.38q16.7,0,21.77,1.36a23.78,23.78,0,0,1,13,8.88q5.26,6.83,5.26,17.66a29.59,29.59,0,0,1-3,14,24.86,24.86,0,0,1-7.7,8.94,26.54,26.54,0,0,1-9.49,4.3q-6.56,1.3-19,1.3H503.29v34.2Zm18.31-75.33v25.73h10q10.82,0,14.47-1.42a12,12,0,0,0,5.72-4.45,12.19,12.19,0,0,0,2.07-7.05,11.72,11.72,0,0,0-2.91-8.16,12.66,12.66,0,0,0-7.36-4q-3.28-.62-13.17-.62Z" transform="translate(-118.42 -27)"/><path class="cls-2" d="M569.47,860.4V769.73H636.7v15.34H587.78v20.1H633.3v15.28H587.78v24.68h50.65V860.4Z" transform="translate(-118.42 -27)"/><path class="cls-2" d="M650.24,815.62q0-13.85,4.14-23.25a42.68,42.68,0,0,1,8.44-12.43,35.29,35.29,0,0,1,11.72-8.16,49.79,49.79,0,0,1,19.54-3.59q20,0,32.07,12.43t12,34.57q0,22-11.94,34.36t-31.91,12.4q-20.22,0-32.16-12.34T650.24,815.62Zm18.86-.62q0,15.4,7.11,23.35a24.45,24.45,0,0,0,36,.06q7-7.89,7-23.66,0-15.58-6.83-23.25t-18.15-7.67q-11.32,0-18.25,7.76T669.11,815Z" transform="translate(-118.42 -27)"/><path class="cls-2" d="M752.66,860.4V769.73h17.81l37.11,60.55V769.73h17V860.4H806.22l-36.55-59.13V860.4Z" transform="translate(-118.42 -27)"/><path class="cls-2" d="M925.71,860.4H905.8l-7.92-20.59H861.64l-7.48,20.59H834.73L870,769.73h19.36ZM892,824.53l-12.49-33.65-12.25,33.65Z" transform="translate(-118.42 -27)"/><path class="cls-2" d="M946.43,860.4V785.07h-26.9V769.73h72.05v15.34H964.74V860.4Z" transform="translate(-118.42 -27)"/><path class="cls-2" d="M997.39,815.62q0-13.85,4.14-23.25a42.66,42.66,0,0,1,8.44-12.43,35.29,35.29,0,0,1,11.72-8.16,49.78,49.78,0,0,1,19.54-3.59q20,0,32.07,12.43t12,34.57q0,22-11.94,34.36t-31.91,12.4q-20.22,0-32.16-12.34T997.39,815.62Zm18.86-.62q0,15.4,7.11,23.35a24.45,24.45,0,0,0,36,.06q7-7.89,7-23.66,0-15.58-6.83-23.25t-18.15-7.67q-11.32,0-18.24,7.76T1016.25,815Z" transform="translate(-118.42 -27)"/><path class="cls-2" d="M1211.88,860.4H1192L1184,839.8H1147.8l-7.48,20.59H1120.9l35.31-90.67h19.36Zm-33.71-35.87-12.49-33.65-12.25,33.65Z" transform="translate(-118.42 -27)"/><path class="cls-2" d="M1221.77,860.4V769.73h17.81l37.11,60.55V769.73h17V860.4h-18.37l-36.55-59.13V860.4Z" transform="translate(-118.42 -27)"/><path class="cls-2" d="M1313,769.73h33.46q11.32,0,17.26,1.73a30.33,30.33,0,0,1,13.67,8.35A39.62,39.62,0,0,1,1386,794.5q3,8.69,3,21.43a59.58,59.58,0,0,1-2.78,19.3,40,40,0,0,1-9.71,16,32.19,32.19,0,0,1-12.86,7.24q-6.06,1.92-16.2,1.92H1313Zm18.31,15.34v60.05H1345a49.83,49.83,0,0,0,11.07-.87,16.88,16.88,0,0,0,7.39-3.77q2.94-2.66,4.79-8.75t1.86-16.61q0-10.51-1.86-16.14a20.75,20.75,0,0,0-5.2-8.78,17.42,17.42,0,0,0-8.47-4.27q-3.84-.87-15-.87Z" transform="translate(-118.42 -27)"/><path class="cls-2" d="M1486.29,860.4h-19.92l-7.92-20.59h-36.24l-7.48,20.59h-19.42l35.31-90.67H1450Zm-33.71-35.87-12.49-33.65-12.25,33.65Z" transform="translate(-118.42 -27)"/><path class="cls-2" d="M1496.5,860.4V770.47h18.31v74.65h45.52V860.4Z" transform="translate(-118.42 -27)"/><path class="cls-2" d="M1573.25,769.73h18.31v49.11q0,11.69.68,15.15a14.68,14.68,0,0,0,5.6,8.94q4.42,3.37,12.09,3.37t11.75-3.18a12.58,12.58,0,0,0,4.76-7.82,102.12,102.12,0,0,0,.8-15.4V769.73h18.31v47.62q0,16.33-1.48,23.07a25.52,25.52,0,0,1-5.47,11.38,27.64,27.64,0,0,1-10.67,7.39q-6.68,2.75-17.44,2.75-13,0-19.7-3a28.17,28.17,0,0,1-10.61-7.79,25,25,0,0,1-5.13-10q-1.79-7.79-1.79-23Z" transform="translate(-118.42 -27)"/><path class="cls-2" d="M1657,860.4V843.88l47.62-58.82h-42.24V769.73h66.36V784l-49.66,61.17h51.58V860.4Z" transform="translate(-118.42 -27)"/><path class="cls-2" d="M504.9,921.72h33.46q11.32,0,17.26,1.73a30.33,30.33,0,0,1,13.67,8.35,39.63,39.63,0,0,1,8.66,14.69q3,8.69,3,21.43a59.58,59.58,0,0,1-2.78,19.3,40,40,0,0,1-9.71,16,32.19,32.19,0,0,1-12.86,7.24q-6.06,1.92-16.2,1.92H504.9Zm18.31,15.34v60.05h13.67a49.82,49.82,0,0,0,11.07-.87,16.89,16.89,0,0,0,7.39-3.77q2.94-2.66,4.79-8.75T562,967.12q0-10.51-1.86-16.14a20.74,20.74,0,0,0-5.2-8.78,17.42,17.42,0,0,0-8.47-4.27q-3.84-.87-15-.87Z" transform="translate(-118.42 -27)"/><path class="cls-2" d="M596.44,1012.39V921.72h67.23v15.34H614.74v20.1h45.52v15.28H614.74v24.68H665.4v15.28Z" transform="translate(-118.42 -27)"/><path class="cls-3" d="M716.23,1012.39V921.72h62.16v15.34H734.54v21.46h37.85v15.34H734.54v38.53Z" transform="translate(-118.42 -27)"/><path class="cls-3" d="M789.77,967.61q0-13.85,4.14-23.25a42.68,42.68,0,0,1,8.44-12.43,35.29,35.29,0,0,1,11.72-8.16,49.79,49.79,0,0,1,19.54-3.59q20,0,32.07,12.43t12,34.57q0,22-11.94,34.36t-31.91,12.4q-20.22,0-32.16-12.34T789.77,967.61Zm18.86-.62q0,15.4,7.11,23.35a24.45,24.45,0,0,0,36,.06q7-7.89,7-23.66,0-15.58-6.83-23.25t-18.15-7.67q-11.32,0-18.25,7.76T808.63,967Zm13.85-50.47L831,898H850.5l-17,18.49Z" transform="translate(-118.42 -27)"/><path class="cls-3" d="M892.07,1012.39V921.72H930.6q14.53,0,21.12,2.44a20.84,20.84,0,0,1,10.54,8.69,26.12,26.12,0,0,1,4,14.29q0,10.21-6,16.85t-17.94,8.38a42.77,42.77,0,0,1,9.8,7.61q3.86,4.14,10.42,14.72l11.07,17.69H951.69l-13.23-19.73q-7.05-10.58-9.65-13.33a14.06,14.06,0,0,0-5.5-3.77q-2.91-1-9.22-1h-3.71v37.85Zm18.31-52.32h13.54q13.17,0,16.45-1.11a9.86,9.86,0,0,0,5.13-3.83,11.8,11.8,0,0,0,1.86-6.8,10.87,10.87,0,0,0-2.44-7.39,11.22,11.22,0,0,0-6.9-3.56q-2.23-.31-13.36-.31H910.37Z" transform="translate(-118.42 -27)"/><path class="cls-3" d="M983.23,1012.39V921.72h27.4l16.45,61.85,16.27-61.85h27.46v90.67h-17V941l-18,71.37h-17.63L1000.24,941v71.37Z" transform="translate(-118.42 -27)"/><path class="cls-3" d="M1088.86,921.72h18.31v49.11q0,11.69.68,15.15a14.68,14.68,0,0,0,5.6,8.94q4.42,3.37,12.09,3.37t11.75-3.18a12.58,12.58,0,0,0,4.76-7.82,102.12,102.12,0,0,0,.8-15.4V921.72h18.31v47.62q0,16.33-1.48,23.07a25.52,25.52,0,0,1-5.47,11.38,27.64,27.64,0,0,1-10.67,7.39q-6.68,2.75-17.44,2.75-13,0-19.7-3a28.17,28.17,0,0,1-10.61-7.79,25,25,0,0,1-5.13-10q-1.79-7.79-1.79-23Z" transform="translate(-118.42 -27)"/><path class="cls-3" d="M1181,1012.39V922.47h18.31v74.65h45.52v15.28Z" transform="translate(-118.42 -27)"/><path class="cls-3" d="M1339.59,1012.39h-19.92l-7.92-20.59h-36.24l-7.48,20.59h-19.42l35.31-90.67h19.36Zm-33.71-35.87-12.49-33.65-12.25,33.65Z" transform="translate(-118.42 -27)"/><path class="cls-3" d="M1344.66,982.89l17.81-1.73q1.61,9,6.52,13.17t13.27,4.21q8.84,0,13.33-3.74t4.48-8.75a8.26,8.26,0,0,0-1.89-5.47q-1.89-2.26-6.59-3.93-3.22-1.11-14.66-4-14.72-3.65-20.66-9a23.59,23.59,0,0,1-8.35-18.25,23.3,23.3,0,0,1,3.93-13,24.58,24.58,0,0,1,11.32-9.18q7.39-3.16,17.84-3.15,17.07,0,25.7,7.48t9.06,20l-18.31.8q-1.18-7-5-10t-11.6-3.06q-8,0-12.49,3.28a6.6,6.6,0,0,0-2.91,5.63,7,7,0,0,0,2.72,5.5q3.46,2.91,16.82,6.06t19.76,6.52a25.47,25.47,0,0,1,10,9.22q3.62,5.84,3.62,14.44a26.71,26.71,0,0,1-4.33,14.6,25.93,25.93,0,0,1-12.25,10.11q-7.92,3.31-19.73,3.31-17.19,0-26.41-7.95T1344.66,982.89Z" transform="translate(-118.42 -27)"/></g><g id="Capa_4" data-name="Capa 4"><path class="cls-3" d="M1415,708h168V402l86.5-.9L1712,283l-129-1s-16.7-85,93-85h60l66-167-145.6-.5S1415,17.7,1415,272.7Z" transform="translate(-118.42 -27)"/></g></svg>