<svg id="Capa_7" data-name="Capa 7" xmlns="http://www.w3.org/2000/svg" viewBox="0 0 1825.58 898.26"><defs><style>.cls-1{fill:#0cc000;}.cls-2{fill:#ff8000;}.cls-3{fill:#fff;}</style></defs><title>CATC</title><path class="cls-1" d="M513.4,642.79l146.78-.66,53.07-137,53.07-137L806.57,264l93.58,241-133.83.26-53.07,137L994,642.13l53.07-137L994,368.06,940.91,230.9l-23.84-61.53A118.36,118.36,0,0,0,806.7,93.74h0a118.23,118.23,0,0,0-110.37,75.63l-23.71,61.4L566.35,505.09h0Z" transform="translate(-47.42 -93.74)"/><path class="cls-1" d="M513,506.95c-17.41,45.14-34.6,89.59-52.63,135.59H421.86c-89.21,0,.76.57-88.45,0-60-.38-117-12-167.7-45.16C106.84,559,69.86,504.9,54.95,436.41c-13.63-62.6-9.25-124.17,17.27-183,30.37-67.33,82.22-111.82,151-137.22,35.44-13.1,72.11-17.74,109.8-17.84,88.87-.23,57.65-.95,146.53-.95,2,0,84.55,1.59,86.84,1.59-18,45.75-35.79,93.7-52.94,137.75l-153.69,1.05-34.73.29c-33,.11-62.64,10.31-87.61,32.41-22.6,20-35.62,45.39-40.39,75-5.1,31.62-1.88,62.26,13.38,90.84C230.47,474,263,498,301.47,505.07c10.25,1.71,12.5,2.19,21.82,3,89,.14,8.77.32,97.82.32C423.28,508.39,510.25,506.95,513,506.95Z" transform="translate(-47.42 -93.74)"/><path class="cls-2" d="M1129.63,644.21V233.11H995.86L1048.8,95.78h358.26l-52.94,137-88.22.12.21,411.28Z" transform="translate(-47.42 -93.74)"/><path class="cls-2" d="M1819.62,506.95c-17.41,45.14-34.6,89.59-52.63,135.59h-38.48c-89.21,0,.76.57-88.45,0-60-.38-117-12-167.7-45.16-58.86-38.43-95.84-92.48-110.76-161-13.63-62.6-9.25-124.17,17.27-183,30.37-67.33,82.22-111.82,151-137.22,35.44-13.1,72.11-17.74,109.8-17.84,88.87-.23,57.65-.95,146.53-.95,2,0,84.55,1.59,86.84,1.59-18,45.75-35.79,93.7-52.94,137.75l-153.69,1.05-34.73.29c-33,.11-62.64,10.31-87.61,32.41-22.6,20-35.62,45.39-40.39,75-5.1,31.62-1.88,62.26,13.38,90.84,20.11,37.66,52.65,61.67,91.11,68.72,10.25,1.71,12.5,2.19,21.82,3,89,.14,8.77.32,97.82.32C1729.94,508.39,1816.9,506.95,1819.62,506.95Z" transform="translate(-47.42 -93.74)"/><path class="cls-3" d="M149,805.06l17.75,5.63q-4.08,14.84-13.58,22t-24.09,7.21q-18.06,0-29.69-12.34T87.74,793.87q0-22.63,11.69-35.16t30.74-12.52q16.64,0,27,9.83,6.18,5.81,9.28,16.7L148.35,777a18.73,18.73,0,0,0-19.11-15.21,20.63,20.63,0,0,0-16.36,7.24q-6.28,7.24-6.28,23.44,0,17.19,6.19,24.49a20.08,20.08,0,0,0,16.08,7.3,18.34,18.34,0,0,0,12.56-4.64Q146.68,815,149,805.06Z" transform="translate(-47.42 -93.74)"/><path class="cls-3" d="M264.19,838.4H244.28l-7.92-20.59H200.12l-7.48,20.59H173.22l35.31-90.67h19.36Zm-33.71-35.87L218,768.88l-12.25,33.65Z" transform="translate(-47.42 -93.74)"/><path class="cls-3" d="M273.66,838.4V747.73h27.4l16.45,61.85,16.27-61.85h27.46V838.4h-17V767l-18,71.37H308.6L290.66,767V838.4Z" transform="translate(-47.42 -93.74)"/><path class="cls-3" d="M379.42,838.4V747.73h29.38q16.7,0,21.77,1.36a23.78,23.78,0,0,1,13,8.88q5.26,6.83,5.26,17.66a29.59,29.59,0,0,1-3,14,24.86,24.86,0,0,1-7.7,8.94,26.54,26.54,0,0,1-9.49,4.3q-6.56,1.3-19,1.3H397.72v34.2Zm18.31-75.33v25.73h10q10.82,0,14.47-1.42a12,12,0,0,0,5.72-4.45,12.19,12.19,0,0,0,2.07-7.05,11.72,11.72,0,0,0-2.91-8.16,12.66,12.66,0,0,0-7.36-4q-3.28-.62-13.17-.62Z" transform="translate(-47.42 -93.74)"/><path class="cls-3" d="M463.9,838.4V747.73h67.23v15.34H482.21v20.1h45.52v15.28H482.21v24.68h50.65V838.4Z" transform="translate(-47.42 -93.74)"/><path class="cls-3" d="M544.67,793.62q0-13.85,4.14-23.25a42.68,42.68,0,0,1,8.44-12.43A35.29,35.29,0,0,1,569,749.77a49.79,49.79,0,0,1,19.54-3.59q20,0,32.07,12.43t12,34.57q0,22-11.94,34.36t-31.91,12.4q-20.22,0-32.16-12.34T544.67,793.62Zm18.86-.62q0,15.4,7.11,23.35a24.45,24.45,0,0,0,36,.06q7-7.89,7-23.66,0-15.58-6.83-23.25t-18.15-7.67q-11.32,0-18.25,7.76T563.53,793Z" transform="translate(-47.42 -93.74)"/><path class="cls-3" d="M647.09,838.4V747.73H664.9L702,808.28V747.73h17V838.4H700.65L664.1,779.27V838.4Z" transform="translate(-47.42 -93.74)"/><path class="cls-3" d="M820.14,838.4H800.22l-7.92-20.59H756.06l-7.48,20.59H729.16l35.31-90.67h19.36Zm-33.71-35.87-12.49-33.65-12.25,33.65Z" transform="translate(-47.42 -93.74)"/><path class="cls-3" d="M840.86,838.4V763.07H814V747.73H886v15.34H859.16V838.4Z" transform="translate(-47.42 -93.74)"/><path class="cls-3" d="M891.82,793.62q0-13.85,4.14-23.25a42.68,42.68,0,0,1,8.44-12.43,35.29,35.29,0,0,1,11.72-8.16,49.79,49.79,0,0,1,19.54-3.59q20,0,32.07,12.43t12,34.57q0,22-11.94,34.36t-31.91,12.4q-20.22,0-32.16-12.34T891.82,793.62Zm18.86-.62q0,15.4,7.11,23.35a24.45,24.45,0,0,0,36,.06q7-7.89,7-23.66,0-15.58-6.83-23.25t-18.15-7.67q-11.32,0-18.25,7.76T910.68,793Z" transform="translate(-47.42 -93.74)"/><path class="cls-3" d="M1106.3,838.4h-19.92l-7.92-20.59h-36.24l-7.48,20.59h-19.42l35.31-90.67H1070Zm-33.71-35.87-12.49-33.65-12.25,33.65Z" transform="translate(-47.42 -93.74)"/><path class="cls-3" d="M1116.2,838.4V747.73H1134l37.11,60.55V747.73h17V838.4h-18.37l-36.55-59.13V838.4Z" transform="translate(-47.42 -93.74)"/><path class="cls-3" d="M1207.42,747.73h33.46q11.32,0,17.26,1.73a30.33,30.33,0,0,1,13.67,8.35,39.62,39.62,0,0,1,8.66,14.69q3,8.69,3,21.43a59.58,59.58,0,0,1-2.78,19.3,40,40,0,0,1-9.71,16,32.19,32.19,0,0,1-12.86,7.24q-6.06,1.92-16.2,1.92h-34.45Zm18.31,15.34v60.05h13.67a49.83,49.83,0,0,0,11.07-.87,16.88,16.88,0,0,0,7.39-3.77q2.94-2.66,4.79-8.75t1.86-16.61q0-10.51-1.86-16.14a20.75,20.75,0,0,0-5.2-8.78,17.42,17.42,0,0,0-8.47-4.27q-3.84-.87-15-.87Z" transform="translate(-47.42 -93.74)"/><path class="cls-3" d="M1380.72,838.4H1360.8l-7.92-20.59h-36.24l-7.48,20.59h-19.42l35.31-90.67h19.36ZM1347,802.53l-12.49-33.65-12.25,33.65Z" transform="translate(-47.42 -93.74)"/><path class="cls-3" d="M1390.92,838.4V748.47h18.31v74.65h45.52V838.4Z" transform="translate(-47.42 -93.74)"/><path class="cls-3" d="M1467.68,747.73H1486v49.11q0,11.69.68,15.15a14.68,14.68,0,0,0,5.6,8.94q4.42,3.37,12.09,3.37t11.75-3.18a12.58,12.58,0,0,0,4.76-7.82,102.12,102.12,0,0,0,.8-15.4V747.73H1540v47.62q0,16.33-1.48,23.07A25.52,25.52,0,0,1,1533,829.8a27.64,27.64,0,0,1-10.67,7.39q-6.68,2.75-17.44,2.75-13,0-19.7-3a28.17,28.17,0,0,1-10.61-7.79,25,25,0,0,1-5.13-10q-1.79-7.79-1.79-23Z" transform="translate(-47.42 -93.74)"/><path class="cls-3" d="M1551.42,838.4V821.88L1599,763.07H1556.8V747.73h66.36V762l-49.66,61.17h51.58V838.4Z" transform="translate(-47.42 -93.74)"/><path class="cls-3" d="M1671.77,747.73h33.46q11.32,0,17.26,1.73a30.33,30.33,0,0,1,13.67,8.35,39.62,39.62,0,0,1,8.66,14.69q3,8.69,3,21.43a59.58,59.58,0,0,1-2.78,19.3,40,40,0,0,1-9.71,16,32.19,32.19,0,0,1-12.86,7.24q-6.06,1.92-16.2,1.92h-34.45Zm18.31,15.34v60.05h13.67a49.83,49.83,0,0,0,11.07-.87,16.88,16.88,0,0,0,7.39-3.77q2.94-2.66,4.79-8.75t1.86-16.61q0-10.51-1.86-16.14a20.75,20.75,0,0,0-5.2-8.78,17.42,17.42,0,0,0-8.47-4.27q-3.84-.87-15-.87Z" transform="translate(-47.42 -93.74)"/><path class="cls-3" d="M1763.31,838.4V747.73h67.23v15.34h-48.92v20.1h45.52v15.28h-45.52v24.68h50.65V838.4Z" transform="translate(-47.42 -93.74)"/><path class="cls-2" d="M99.65,990.39V915.06H72.75V899.72H144.8v15.34H118v75.33Z" transform="translate(-47.42 -93.74)"/><path class="cls-2" d="M156.67,990.39V899.72H195.2q14.53,0,21.12,2.44a20.84,20.84,0,0,1,10.54,8.69,26.13,26.13,0,0,1,4,14.29q0,10.21-6,16.85t-17.94,8.38a42.77,42.77,0,0,1,9.8,7.61q3.86,4.14,10.42,14.72l11.07,17.69H216.29l-13.23-19.73q-7.05-10.58-9.65-13.33a14.06,14.06,0,0,0-5.5-3.77q-2.91-1-9.22-1H175v37.85ZM175,938.07h13.54q13.17,0,16.45-1.11a9.86,9.86,0,0,0,5.13-3.83,11.8,11.8,0,0,0,1.86-6.8,10.87,10.87,0,0,0-2.44-7.39,11.22,11.22,0,0,0-6.9-3.56q-2.23-.31-13.36-.31H175Z" transform="translate(-47.42 -93.74)"/><path class="cls-2" d="M329.84,990.39H309.93L302,969.8H265.77l-7.48,20.59H238.87l35.31-90.67h19.36Zm-33.71-35.87-12.49-33.65L271.4,954.52Z" transform="translate(-47.42 -93.74)"/><path class="cls-2" d="M339.31,990.39V899.72h27.4l16.45,61.85,16.27-61.85h27.46v90.67h-17V919l-18,71.37H374.25L356.31,919v71.37Z" transform="translate(-47.42 -93.74)"/><path class="cls-2" d="M441.35,945.61q0-13.85,4.14-23.25a42.68,42.68,0,0,1,8.44-12.43,35.29,35.29,0,0,1,11.72-8.16,49.79,49.79,0,0,1,19.54-3.59q20,0,32.07,12.43t12,34.57q0,22-11.94,34.36t-31.91,12.4q-20.22,0-32.16-12.34T441.35,945.61Zm18.86-.62q0,15.4,7.11,23.35a24.45,24.45,0,0,0,36,.06q7-7.89,7-23.66,0-15.58-6.83-23.25t-18.15-7.67q-11.32,0-18.25,7.76T460.22,945Z" transform="translate(-47.42 -93.74)"/><path class="cls-2" d="M538.95,960.89l17.81-1.73q1.61,9,6.52,13.17t13.27,4.21q8.84,0,13.33-3.74t4.48-8.75a8.26,8.26,0,0,0-1.89-5.47q-1.89-2.26-6.59-3.93-3.22-1.11-14.66-4-14.72-3.65-20.66-9a23.59,23.59,0,0,1-8.35-18.25,23.31,23.31,0,0,1,3.93-13,24.59,24.59,0,0,1,11.32-9.18q7.39-3.16,17.84-3.15,17.07,0,25.7,7.48t9.06,20l-18.31.8q-1.18-7-5-10t-11.6-3.06q-8,0-12.49,3.28a6.6,6.6,0,0,0-2.91,5.63,7,7,0,0,0,2.72,5.5q3.46,2.91,16.82,6.06T599,940.33a25.47,25.47,0,0,1,10,9.22q3.62,5.84,3.62,14.44a26.71,26.71,0,0,1-4.33,14.6,25.94,25.94,0,0,1-12.25,10.11Q588.18,992,576.37,992q-17.19,0-26.41-7.95T538.95,960.89Z" transform="translate(-47.42 -93.74)"/><path class="cls-2" d="M721.27,957.06,739,962.68q-4.08,14.84-13.58,22t-24.09,7.21q-18.06,0-29.69-12.34T660,945.86q0-22.63,11.69-35.16t30.74-12.52q16.64,0,27,9.83,6.18,5.81,9.28,16.7L720.66,929a18.73,18.73,0,0,0-19.11-15.21,20.63,20.63,0,0,0-16.36,7.24q-6.28,7.24-6.28,23.44,0,17.19,6.19,24.49a20.08,20.08,0,0,0,16.08,7.3,18.34,18.34,0,0,0,12.56-4.64Q719,967,721.27,957.06Z" transform="translate(-47.42 -93.74)"/><path class="cls-2" d="M754.8,990.39V899.72h38.53q14.53,0,21.12,2.44A20.84,20.84,0,0,1,825,910.86a26.13,26.13,0,0,1,4,14.29q0,10.21-6,16.85T805,950.38a42.77,42.77,0,0,1,9.8,7.61q3.86,4.14,10.42,14.72l11.07,17.69H814.42l-13.23-19.73q-7.05-10.58-9.65-13.33a14.06,14.06,0,0,0-5.5-3.77q-2.91-1-9.22-1H773.1v37.85Zm18.31-52.32h13.54q13.17,0,16.45-1.11a9.86,9.86,0,0,0,5.13-3.83,11.8,11.8,0,0,0,1.86-6.8,10.87,10.87,0,0,0-2.44-7.39,11.22,11.22,0,0,0-6.9-3.56q-2.23-.31-13.36-.31H773.1Z" transform="translate(-47.42 -93.74)"/><path class="cls-2" d="M842.5,945.61q0-13.85,4.14-23.25a42.68,42.68,0,0,1,8.44-12.43,35.29,35.29,0,0,1,11.72-8.16,49.79,49.79,0,0,1,19.54-3.59q20,0,32.07,12.43t12,34.57q0,22-11.94,34.36t-31.91,12.4q-20.22,0-32.16-12.34T842.5,945.61Zm18.86-.62q0,15.4,7.11,23.35a24.45,24.45,0,0,0,36,.06q7-7.89,7-23.66,0-15.58-6.83-23.25t-18.15-7.67q-11.32,0-18.25,7.76T861.36,945Z" transform="translate(-47.42 -93.74)"/><path class="cls-2" d="M944.91,990.39V899.72h17.81l37.11,60.55V899.72h17v90.67H998.47l-36.55-59.13v59.13Z" transform="translate(-47.42 -93.74)"/><path class="cls-2" d="M1032.49,945.61q0-13.85,4.14-23.25a42.67,42.67,0,0,1,8.44-12.43,35.29,35.29,0,0,1,11.72-8.16,49.79,49.79,0,0,1,19.54-3.59q20,0,32.07,12.43t12,34.57q0,22-11.94,34.36t-31.91,12.4q-20.22,0-32.16-12.34T1032.49,945.61Zm18.86-.62q0,15.4,7.11,23.35a24.45,24.45,0,0,0,36,.06q7-7.89,7-23.66,0-15.58-6.83-23.25t-18.15-7.67q-11.32,0-18.25,7.76T1051.35,945Z" transform="translate(-47.42 -93.74)"/><path class="cls-2" d="M1134.48,990.39V899.72h27.4l16.45,61.85,16.27-61.85h27.46v90.67h-17V919l-18,71.37h-17.63L1151.48,919v71.37Z" transform="translate(-47.42 -93.74)"/><path class="cls-2" d="M1240.23,990.39V899.72h67.23v15.34h-48.92v20.1h45.52v15.28h-45.52v24.68h50.65v15.28Z" transform="translate(-47.42 -93.74)"/><path class="cls-2" d="M1345.13,990.39V915.06h-26.9V899.72h72.05v15.34h-26.84v75.33Z" transform="translate(-47.42 -93.74)"/><path class="cls-2" d="M1402.15,990.39V899.72h38.53q14.53,0,21.12,2.44a20.84,20.84,0,0,1,10.54,8.69,26.13,26.13,0,0,1,4,14.29q0,10.21-6,16.85t-17.94,8.38a42.75,42.75,0,0,1,9.8,7.61q3.86,4.14,10.42,14.72l11.07,17.69h-21.89l-13.24-19.73q-7.05-10.58-9.65-13.33a14.07,14.07,0,0,0-5.5-3.77q-2.91-1-9.21-1h-3.71v37.85Zm18.31-52.32H1434q13.17,0,16.45-1.11a9.86,9.86,0,0,0,5.13-3.83,11.8,11.8,0,0,0,1.86-6.8,10.87,10.87,0,0,0-2.44-7.39,11.21,11.21,0,0,0-6.9-3.56q-2.23-.31-13.36-.31h-14.29Z" transform="translate(-47.42 -93.74)"/><path class="cls-2" d="M1575.32,990.39h-19.92l-7.92-20.59h-36.24l-7.48,20.59h-19.42l35.31-90.67H1539Zm-33.71-35.87-12.49-33.65-12.25,33.65Z" transform="translate(-47.42 -93.74)"/><path class="cls-2" d="M1585,899.72h33.46q11.32,0,17.26,1.73a30.33,30.33,0,0,1,13.67,8.35,39.62,39.62,0,0,1,8.66,14.69q3,8.69,3,21.43a59.58,59.58,0,0,1-2.78,19.3,40,40,0,0,1-9.71,16,32.19,32.19,0,0,1-12.86,7.24q-6.06,1.92-16.2,1.92H1585Zm18.31,15.34v60.05h13.67a49.83,49.83,0,0,0,11.07-.87,16.88,16.88,0,0,0,7.39-3.77q2.94-2.66,4.79-8.75t1.86-16.61q0-10.51-1.86-16.14a20.75,20.75,0,0,0-5.2-8.78,17.42,17.42,0,0,0-8.47-4.27q-3.84-.87-15-.87Z" transform="translate(-47.42 -93.74)"/><path class="cls-2" d="M1672.79,945.61q0-13.85,4.14-23.25a42.66,42.66,0,0,1,8.44-12.43,35.3,35.3,0,0,1,11.72-8.16,49.78,49.78,0,0,1,19.54-3.59q20,0,32.07,12.43t12,34.57q0,22-11.94,34.36t-31.91,12.4q-20.22,0-32.16-12.34T1672.79,945.61Zm18.86-.62q0,15.4,7.11,23.35a24.45,24.45,0,0,0,36,.06q7-7.89,7-23.66,0-15.58-6.83-23.25t-18.15-7.67q-11.32,0-18.24,7.76T1691.66,945Z" transform="translate(-47.42 -93.74)"/><path class="cls-2" d="M1770.39,960.89l17.81-1.73q1.61,9,6.52,13.17t13.27,4.21q8.84,0,13.33-3.74t4.48-8.75a8.26,8.26,0,0,0-1.89-5.47q-1.89-2.26-6.59-3.93-3.22-1.11-14.66-4-14.72-3.65-20.66-9a23.59,23.59,0,0,1-8.35-18.25,23.3,23.3,0,0,1,3.93-13,24.58,24.58,0,0,1,11.32-9.18q7.39-3.16,17.84-3.15,17.07,0,25.7,7.48t9.06,20l-18.31.8q-1.18-7-5-10t-11.6-3.06q-8,0-12.49,3.28a6.6,6.6,0,0,0-2.91,5.63,7,7,0,0,0,2.72,5.5q3.46,2.91,16.82,6.06t19.76,6.52a25.47,25.47,0,0,1,10,9.22q3.62,5.84,3.62,14.44a26.71,26.71,0,0,1-4.33,14.6,25.93,25.93,0,0,1-12.25,10.11q-7.92,3.31-19.73,3.31-17.19,0-26.41-7.95T1770.39,960.89Z" transform="translate(-47.42 -93.74)"/></svg>