<svg id="Capa_1" data-name="Capa 1" xmlns="http://www.w3.org/2000/svg" viewBox="0 0 1920 642.19"><defs><style>.cls-1{fill:#0ccc00;}.cls-2{fill:#fff;}</style></defs><title>logo</title><polygon class="cls-1" points="0 642.19 248.33 0 1920 0 1673.33 642.19 0 642.19"/><path class="cls-2" d="M61.8,706.06H301.45L342.94,598.9l41.49-107.16,31.51-81.37,73.13,188.45-104.64.2L342.94,706.18l219.54-.13L604,598.9,562.48,491.74,520.93,384.46l-18.59-48A92.59,92.59,0,0,0,416,277.31h0a92.59,92.59,0,0,0-86.34,59.16l-18.59,48L228,598.9H103.22Z" transform="translate(0 -224.16)"/><path class="cls-2" d="M603.93,705.93l314.61.13h.13a83,83,0,0,0,82.85-83V521a83,83,0,0,0-83-83H645.42l41.49,107.3,204.8-.15A26.83,26.83,0,0,1,918.53,572h0a26.83,26.83,0,0,1-26.75,26.83l-14.74,0-231.63-.13Z" transform="translate(0 -224.16)"/><path class="cls-2" d="M1001.51,277.43l-314.61-.13h-.13a83,83,0,0,0-82.85,83V462.34a83,83,0,0,0,83,83H960L918.53,438l-204.8.15a26.83,26.83,0,0,1-26.83-26.83h0a26.83,26.83,0,0,1,26.75-26.83l14.74,0,231.63.13Z" transform="translate(0 -224.16)"/><path class="cls-2" d="M1001.51,384.46l287.89.15a26.72,26.72,0,0,1,26.72,26.72h0a26.72,26.72,0,0,1-26.72,26.72l-206.65,0L1041.26,545.2V706.06l106.67-.06.93-160.8h72.86l62.47,161,114.91-.12L1357.61,598.9l-19.44-53.7h0a60.92,60.92,0,0,0,60.92-60.92v-146a60.92,60.92,0,0,0-60.92-60.92H1043Z" transform="translate(0 -224.16)"/><polygon class="cls-2" points="1399.09 160.64 1857.66 160.64 1774.87 374.93 1481.99 374.7 1399.09 160.64"/><path class="cls-2" d="M119.91,809.31H91.4l-4,13.42H61.8l30.55-81.27h27.39l30.54,81.27H124Zm-5.21-17.57-9-29.22-8.88,29.22Z" transform="translate(0 -224.16)"/><path class="cls-2" d="M158.43,741.45h23.45l30.6,45v-45h23.67v81.27H212.48L182,778.1v44.63H158.43Z" transform="translate(0 -224.16)"/><path class="cls-2" d="M253.17,741.45h37.31q11,0,17.82,3A29,29,0,0,1,319.53,753a35.58,35.58,0,0,1,6.43,13,60.4,60.4,0,0,1,2,15.74q0,13-3,20.2a33.45,33.45,0,0,1-8.23,12,26.86,26.86,0,0,1-11.31,6.46,58.21,58.21,0,0,1-15,2.22H253.17Zm25.11,18.4v44.4h6.15q7.87,0,11.2-1.75a11.83,11.83,0,0,0,5.21-6.1q1.88-4.35,1.88-14.11,0-12.92-4.21-17.69t-14-4.77Z" transform="translate(0 -224.16)"/><path class="cls-2" d="M386.23,809.31H357.72l-4,13.42H328.12l30.55-81.27h27.39l30.54,81.27H390.3ZM381,791.73l-9-29.22-8.88,29.22Z" transform="translate(0 -224.16)"/><path class="cls-2" d="M424.58,741.45h25.11v61.26h39.2v20H424.58Z" transform="translate(0 -224.16)"/><path class="cls-2" d="M550.26,741.45h25.06v48.42a40.75,40.75,0,0,1-2.25,13.6,29.33,29.33,0,0,1-7,11.19A28.09,28.09,0,0,1,556,821.4a50.68,50.68,0,0,1-17.57,2.71,110.5,110.5,0,0,1-12.94-.83,33.88,33.88,0,0,1-11.72-3.3,29.33,29.33,0,0,1-8.62-7,25.69,25.69,0,0,1-5.35-9.36,48.53,48.53,0,0,1-2.33-13.74V741.45h25.06V791q0,6.64,3.69,10.38t10.23,3.74q6.49,0,10.17-3.69T550.26,791Z" transform="translate(0 -224.16)"/><path class="cls-2" d="M646.05,789.46l22,6.65a40.54,40.54,0,0,1-7,15.46A30.31,30.31,0,0,1,649.24,821q-7.07,3.16-18,3.16-13.25,0-21.65-3.85t-14.5-13.55Q589,797,589,781.89q0-20.17,10.73-31t30.35-10.83q15.36,0,24.14,6.21t13.06,19.07l-22.18,4.94a19,19,0,0,0-2.44-5.43,14.47,14.47,0,0,0-5.15-4.44,15.85,15.85,0,0,0-19.9,5.31q-3.44,5.09-3.44,16,0,13.51,4.1,18.52t11.53,5q7.2,0,10.89-4T646.05,789.46Z" transform="translate(0 -224.16)"/><path class="cls-2" d="M681.25,741.45h25.17v81.27H681.25Z" transform="translate(0 -224.16)"/><path class="cls-2" d="M774.41,809.31H745.89l-4,13.42H716.29l30.55-81.27h27.39l30.54,81.27h-26.3Zm-5.21-17.57-9-29.22-8.88,29.22Z" transform="translate(0 -224.16)"/><path class="cls-2" d="M846.23,795.84l23.89-1.5q.77,5.82,3.16,8.87,3.88,4.93,11.09,4.93,5.38,0,8.29-2.52a7.56,7.56,0,0,0,2.91-5.85,7.47,7.47,0,0,0-2.77-5.66q-2.77-2.49-12.86-4.71-16.52-3.71-23.56-9.87a19.85,19.85,0,0,1-7.1-15.69A21.31,21.31,0,0,1,852.91,752a24.09,24.09,0,0,1,10.92-8.76q7.29-3.19,20-3.19,15.58,0,23.75,5.79t9.73,18.44l-23.67,1.39q-.94-5.49-4-8t-8.34-2.5q-4.38,0-6.6,1.86a5.69,5.69,0,0,0-2.22,4.52,4.53,4.53,0,0,0,1.83,3.49q1.77,1.61,8.43,3,16.47,3.55,23.59,7.18t10.37,9a22.84,22.84,0,0,1,3.24,12,25.76,25.76,0,0,1-4.32,14.41,27,27,0,0,1-12.09,10q-7.76,3.41-19.57,3.41-20.74,0-28.72-8T846.23,795.84Z" transform="translate(0 -224.16)"/><path class="cls-2" d="M933.6,741.45h25.17v81.27H933.6Z" transform="translate(0 -224.16)"/><path class="cls-2" d="M976.51,741.45h33l12.74,49.45,12.65-49.45h33v81.27h-20.57v-62l-15.85,62H1012.9l-15.82-62v62H976.51Z" transform="translate(0 -224.16)"/><path class="cls-2" d="M1122.15,822.72V741.45H1164q11.64,0,17.79,2a18.92,18.92,0,0,1,9.92,7.4,22.94,22.94,0,0,1-7,32.79,30.32,30.32,0,0,1-8.82,3.22,25,25,0,0,1,6.54,3,25.33,25.33,0,0,1,4,4.27,31.81,31.81,0,0,1,3.52,5l12.16,23.55h-28.38l-13.42-24.84q-2.55-4.83-4.55-6.26a10.53,10.53,0,0,0-6.15-1.89h-2.22v33Zm25.22-48.34H1158a37.6,37.6,0,0,0,6.65-1.11,6.62,6.62,0,0,0,4.07-2.55,8.23,8.23,0,0,0-.92-10.75q-2.49-2.1-9.37-2.1h-11Z" transform="translate(0 -224.16)"/><path class="cls-2" d="M1260.09,809.31h-28.51l-4,13.42H1202l30.55-81.27h27.39l30.54,81.27h-26.3Zm-5.21-17.57-9-29.22L1237,791.73Z" transform="translate(0 -224.16)"/><path class="cls-2" d="M1350.49,789.46l22,6.65a40.54,40.54,0,0,1-7,15.46,30.31,30.31,0,0,1-11.84,9.37q-7.07,3.16-18,3.16-13.25,0-21.65-3.85t-14.5-13.55q-6.1-9.69-6.1-24.82,0-20.17,10.73-31t30.35-10.83q15.36,0,24.14,6.21t13.06,19.07l-22.18,4.94a19,19,0,0,0-2.44-5.43,14.47,14.47,0,0,0-5.15-4.44,15.85,15.85,0,0,0-19.9,5.31q-3.44,5.09-3.44,16,0,13.51,4.1,18.52t11.53,5q7.2,0,10.89-4T1350.49,789.46Z" transform="translate(0 -224.16)"/><path class="cls-2" d="M1385.69,741.45h25.17v81.27h-25.17Z" transform="translate(0 -224.16)"/><path class="cls-2" d="M1429,741.45h23.45l30.6,45v-45h23.67v81.27H1483.1l-30.43-44.63v44.63H1429Z" transform="translate(0 -224.16)"/><path class="cls-2" d="M1564.31,793.29V776.38h38.81V811q-11.14,7.6-19.71,10.34a66.84,66.84,0,0,1-20.32,2.75q-14.47,0-23.59-4.94a33.75,33.75,0,0,1-14.14-14.69,48.25,48.25,0,0,1-5-22.39q0-13.31,5.49-23.14A35.52,35.52,0,0,1,1541.92,744q8.26-3.94,22.23-3.94,13.47,0,20.15,2.44a26.2,26.2,0,0,1,11.09,7.57,33.64,33.64,0,0,1,6.62,13l-24.23,4.33a13.1,13.1,0,0,0-5.07-7,15.83,15.83,0,0,0-9.12-2.44q-8.26,0-13.17,5.74t-4.91,18.16q0,13.19,5,18.85t13.83,5.65a26.21,26.21,0,0,0,8-1.22,43.5,43.5,0,0,0,8.76-4.15v-7.65Z" transform="translate(0 -224.16)"/></svg>