<?xml version="1.0" encoding="utf-8"?>
<!-- Generator: Adobe Illustrator 21.0.0, SVG Export Plug-In . SVG Version: 6.00 Build 0)  -->
<svg version="1.1" id="Capa_1" xmlns="http://www.w3.org/2000/svg" xmlns:xlink="http://www.w3.org/1999/xlink" x="0px" y="0px"
	 viewBox="0 0 1920 641" style="enable-background:new 0 0 1920 641;" xml:space="preserve">
<style type="text/css">
	.st0{fill:#0CCC00;}
	.st1{fill:#FFFFFF;}
</style>
<g>
	<polygon class="st0" points="2.5,640.7 250.2,0 1918,0 1671.9,640.7 	"/>
</g>
<g>
	<path class="st1" d="M64.1,480.8h239.1l41.4-106.9L386,267l31.4-81.2l73,188L386,374l-41.4,106.9l219-0.1L605,373.9L563.6,267
		l-41.4-107L503.6,112c-13.8-35.6-48-59-86.1-59h0c-38.1,0-72.4,23.4-86.1,59l-18.5,47.9L230,373.9H105.5L64.1,480.8z"/>
</g>
<g>
	<path class="st1" d="M605,480.6l313.9,0.1h0l0.1,0c45.7-0.1,82.7-37.1,82.7-82.8V296.2c0-45.7-37.1-82.8-82.8-82.8h0H646.4
		l41.4,107.1l204.3-0.1c14.8,0,26.8,12,26.8,26.8v0c0,14.8-11.9,26.7-26.7,26.8l-14.7,0l-231.1-0.1L605,480.6z"/>
</g>
<g>
	<path class="st1" d="M1001.7,53.1L687.8,53h0l-0.1,0C642,53.1,605,90.1,605,135.8v101.8c0,45.7,37.1,82.8,82.8,82.8h0h272.5
		l-41.4-107.1l-204.3,0.1c-14.8,0-26.8-12-26.8-26.8v0c0-14.8,11.9-26.7,26.7-26.8l14.7,0l231.1,0.1L1001.7,53.1z"/>
</g>
<g>
	<path class="st1" d="M1001.7,159.9l287.2,0.2c14.7,0,26.7,11.9,26.7,26.7v0c0,14.7-11.9,26.7-26.7,26.7l-206.2,0l-41.4,106.9
		l0,160.5l106.4-0.1l0.9-160.4h72.7l62.3,160.6l114.6-0.1l-41.4-106.9l-19.4-53.6h0c33.6,0,60.8-27.2,60.8-60.8V113.8
		c0-33.6-27.2-60.8-60.8-60.8H1043L1001.7,159.9z"/>
</g>
<g>
	<polygon class="st1" points="1398.3,160.3 1856.4,160.3 1774.3,374 1481,373.8 	"/>
</g>
<g>
	<path class="st1" d="M132.1,587.8h-28.4l-4,13.4H74.1l30.5-81.1h27.3l30.5,81.1h-26.2L132.1,587.8z M126.9,570.2l-9-29.1l-8.9,29.1
		H126.9z"/>
	<path class="st1" d="M170.5,520.1h23.4l30.5,44.9v-44.9H248v81.1h-23.6l-30.4-44.5v44.5h-23.6V520.1z"/>
	<path class="st1" d="M265,520.1h37.2c7.3,0,13.3,1,17.8,3c4.5,2,8.2,4.9,11.2,8.6c2.9,3.7,5.1,8.1,6.4,13c1.3,4.9,2,10.2,2,15.7
		c0,8.7-1,15.4-3,20.2c-2,4.8-4.7,8.8-8.2,12c-3.5,3.2-7.3,5.4-11.3,6.4c-5.5,1.5-10.5,2.2-14.9,2.2H265V520.1z M290.1,538.4v44.3
		h6.1c5.2,0,9-0.6,11.2-1.7s3.9-3.2,5.2-6.1c1.3-2.9,1.9-7.6,1.9-14.1c0-8.6-1.4-14.5-4.2-17.6c-2.8-3.2-7.4-4.8-13.9-4.8H290.1z"/>
	<path class="st1" d="M397.8,587.8h-28.4l-4,13.4h-25.6l30.5-81.1h27.3l30.5,81.1h-26.2L397.8,587.8z M392.6,570.2l-9-29.1
		l-8.9,29.1H392.6z"/>
	<path class="st1" d="M436,520.1h25.1v61.1h39.1v20H436V520.1z"/>
	<path class="st1" d="M561.4,520.1h25v48.3c0,4.8-0.7,9.3-2.2,13.6c-1.5,4.3-3.8,8-7,11.2c-3.2,3.2-6.5,5.4-10,6.7
		c-4.9,1.8-10.7,2.7-17.5,2.7c-3.9,0-8.2-0.3-12.9-0.8c-4.7-0.6-8.6-1.6-11.7-3.3c-3.1-1.6-6-4-8.6-7c-2.6-3-4.4-6.1-5.3-9.3
		c-1.5-5.2-2.3-9.7-2.3-13.7v-48.3h25v49.5c0,4.4,1.2,7.9,3.7,10.4c2.5,2.5,5.9,3.7,10.2,3.7c4.3,0,7.7-1.2,10.1-3.7
		c2.5-2.4,3.7-5.9,3.7-10.4V520.1z"/>
	<path class="st1" d="M657,568l22,6.6c-1.5,6.2-3.8,11.3-7,15.4c-3.2,4.1-7.1,7.2-11.8,9.3c-4.7,2.1-10.7,3.2-17.9,3.2
		c-8.8,0-16-1.3-21.6-3.8c-5.6-2.6-10.4-7.1-14.5-13.5c-4.1-6.4-6.1-14.7-6.1-24.8c0-13.4,3.6-23.7,10.7-30.9
		c7.1-7.2,17.2-10.8,30.3-10.8c10.2,0,18.2,2.1,24.1,6.2c5.8,4.1,10.2,10.5,13,19l-22.1,4.9c-0.8-2.5-1.6-4.3-2.4-5.4
		c-1.4-1.9-3.1-3.4-5.1-4.4c-2-1-4.3-1.6-6.8-1.6c-5.7,0-10,2.3-13.1,6.9c-2.3,3.4-3.4,8.7-3.4,16c0,9,1.4,15.1,4.1,18.5
		c2.7,3.3,6.6,5,11.5,5c4.8,0,8.4-1.3,10.9-4C654.1,577,655.9,573.1,657,568z"/>
	<path class="st1" d="M692.1,520.1h25.1v81.1h-25.1V520.1z"/>
	<path class="st1" d="M785.1,587.8h-28.4l-4,13.4h-25.6l30.5-81.1h27.3l30.5,81.1h-26.2L785.1,587.8z M779.9,570.2l-9-29.1
		l-8.9,29.1H779.9z"/>
	<path class="st1" d="M856.7,574.3l23.8-1.5c0.5,3.9,1.6,6.8,3.2,8.9c2.6,3.3,6.3,4.9,11.1,4.9c3.6,0,6.3-0.8,8.3-2.5
		c1.9-1.7,2.9-3.6,2.9-5.8c0-2.1-0.9-4-2.8-5.6c-1.8-1.7-6.1-3.2-12.8-4.7c-11-2.5-18.8-5.8-23.5-9.8c-4.7-4.1-7.1-9.3-7.1-15.7
		c0-4.2,1.2-8.1,3.6-11.8c2.4-3.7,6-6.6,10.9-8.7c4.8-2.1,11.5-3.2,19.9-3.2c10.4,0,18.3,1.9,23.7,5.8c5.4,3.9,8.7,10,9.7,18.4
		l-23.6,1.4c-0.6-3.7-1.9-6.3-4-8c-2-1.7-4.8-2.5-8.3-2.5c-2.9,0-5.1,0.6-6.6,1.9c-1.5,1.2-2.2,2.7-2.2,4.5c0,1.3,0.6,2.5,1.8,3.5
		c1.2,1.1,4,2.1,8.4,3c11,2.4,18.8,4.7,23.5,7.2c4.7,2.4,8.2,5.4,10.3,9c2.2,3.6,3.2,7.6,3.2,12c0,5.2-1.4,10-4.3,14.4
		c-2.9,4.4-6.9,7.7-12.1,10c-5.2,2.3-11.7,3.4-19.5,3.4c-13.8,0-23.3-2.7-28.6-8C860.4,589.3,857.4,582.5,856.7,574.3z"/>
	<path class="st1" d="M943.9,520.1H969v81.1h-25.1V520.1z"/>
	<path class="st1" d="M986.7,520.1h33l12.7,49.3l12.6-49.3h32.9v81.1h-20.5v-61.8l-15.8,61.8H1023l-15.8-61.8v61.8h-20.5V520.1z"/>
	<path class="st1" d="M1132,601.2v-81.1h41.8c7.7,0,13.7,0.7,17.8,2c4.1,1.3,7.4,3.8,9.9,7.4s3.8,8,3.8,13.1c0,4.5-1,8.4-2.9,11.6
		c-1.9,3.3-4.6,5.9-7.9,7.9c-2.1,1.3-5.1,2.4-8.8,3.2c3,1,5.2,2,6.5,3c0.9,0.7,2.3,2.1,4,4.3c1.8,2.2,2.9,3.9,3.5,5l12.1,23.5h-28.3
		l-13.4-24.8c-1.7-3.2-3.2-5.3-4.5-6.2c-1.8-1.3-3.9-1.9-6.1-1.9h-2.2v32.9H1132z M1157.1,552.9h10.6c1.1,0,3.4-0.4,6.6-1.1
		c1.7-0.3,3-1.2,4.1-2.5c1-1.4,1.6-2.9,1.6-4.7c0-2.6-0.8-4.6-2.5-6c-1.7-1.4-4.8-2.1-9.3-2.1h-11V552.9z"/>
	<path class="st1" d="M1269.6,587.8h-28.4l-4,13.4h-25.6l30.5-81.1h27.3l30.5,81.1h-26.2L1269.6,587.8z M1264.4,570.2l-9-29.1
		l-8.9,29.1H1264.4z"/>
	<path class="st1" d="M1359.8,568l22,6.6c-1.5,6.2-3.8,11.3-7,15.4c-3.2,4.1-7.1,7.2-11.8,9.3c-4.7,2.1-10.7,3.2-17.9,3.2
		c-8.8,0-16-1.3-21.6-3.8c-5.6-2.6-10.4-7.1-14.5-13.5c-4.1-6.4-6.1-14.7-6.1-24.8c0-13.4,3.6-23.7,10.7-30.9
		c7.1-7.2,17.2-10.8,30.3-10.8c10.2,0,18.2,2.1,24.1,6.2s10.2,10.5,13,19l-22.1,4.9c-0.8-2.5-1.6-4.3-2.4-5.4
		c-1.4-1.9-3.1-3.4-5.1-4.4c-2-1-4.3-1.6-6.8-1.6c-5.7,0-10,2.3-13.1,6.9c-2.3,3.4-3.4,8.7-3.4,16c0,9,1.4,15.1,4.1,18.5
		c2.7,3.3,6.6,5,11.5,5c4.8,0,8.4-1.3,10.9-4S1358.7,573.1,1359.8,568z"/>
	<path class="st1" d="M1394.9,520.1h25.1v81.1h-25.1V520.1z"/>
	<path class="st1" d="M1438.2,520.1h23.4l30.5,44.9v-44.9h23.6v81.1h-23.6l-30.4-44.5v44.5h-23.6V520.1z"/>
	<path class="st1" d="M1573.1,571.8v-16.9h38.7v34.6c-7.4,5.1-14,8.5-19.7,10.3c-5.7,1.8-12.5,2.7-20.3,2.7
		c-9.6,0-17.5-1.6-23.5-4.9c-6.1-3.3-10.8-8.2-14.1-14.7c-3.3-6.5-5-13.9-5-22.3c0-8.9,1.8-16.5,5.5-23.1s9-11.5,16-14.9
		c5.5-2.6,12.9-3.9,22.2-3.9c9,0,15.7,0.8,20.1,2.4c4.4,1.6,8.1,4.1,11.1,7.6c2.9,3.4,5.1,7.7,6.6,13l-24.2,4.3
		c-1-3.1-2.7-5.4-5.1-7c-2.4-1.6-5.4-2.4-9.1-2.4c-5.5,0-9.9,1.9-13.1,5.7c-3.3,3.8-4.9,9.9-4.9,18.1c0,8.8,1.6,15,4.9,18.8
		c3.3,3.8,7.9,5.6,13.8,5.6c2.8,0,5.5-0.4,8-1.2c2.5-0.8,5.5-2.2,8.7-4.1v-7.6H1573.1z"/>
</g>
</svg>
