<svg id="Capa_4" data-name="Capa 4" xmlns="http://www.w3.org/2000/svg" viewBox="0 0 124.15 44.96"><defs><style>.cls-1{fill:gray;}.cls-2{fill:red;}</style></defs><title>nimautotitle</title><path class="cls-1" d="M21.36,87a.25.25,0,0,1-.09-.2V73.7a.25.25,0,0,1,.09-.2.3.3,0,0,1,.21-.08h2a.24.24,0,0,1,.21.14L28.4,81.4q.22.39.35.39c.1,0,.16-.14.16-.43l0-7.66a.25.25,0,0,1,.09-.2.3.3,0,0,1,.21-.08h2.05a.3.3,0,0,1,.21.08.25.25,0,0,1,.09.2V86.78a.25.25,0,0,1-.09.2.3.3,0,0,1-.21.08H29.83a1.39,1.39,0,0,1-.49-.06.76.76,0,0,1-.29-.31l-4.93-7.84q-.12-.18-.21-.18c-.1,0-.16.09-.16.27l0,7.84a.25.25,0,0,1-.09.2.28.28,0,0,1-.19.08h-2A.3.3,0,0,1,21.36,87Z" transform="translate(-3.28 -42.28)"/><path class="cls-1" d="M35.18,87a.34.34,0,0,1-.11-.24v-13a.35.35,0,0,1,.12-.26.37.37,0,0,1,.25-.11h2a.34.34,0,0,1,.24.11.36.36,0,0,1,.11.26v13a.35.35,0,0,1-.1.24.33.33,0,0,1-.25.11h-2A.36.36,0,0,1,35.18,87Z" transform="translate(-3.28 -42.28)"/><path class="cls-1" d="M41.91,87a.35.35,0,0,1-.1-.24v-13a.35.35,0,0,1,.1-.24.31.31,0,0,1,.23-.11h1.92a.31.31,0,0,1,.29.2l3,4.93a.48.48,0,0,0,.11.12.32.32,0,0,0,.23.08h0a.24.24,0,0,0,.21-.09l.09-.13,3-4.89a.38.38,0,0,1,.31-.21h1.94a.31.31,0,0,1,.23.11.36.36,0,0,1,.1.24v13a.35.35,0,0,1-.1.24.31.31,0,0,1-.23.11H51.28a.33.33,0,0,1-.35-.35V79c0-.13,0-.2-.08-.2s-.11.05-.18.16l-2.05,2.91a1.19,1.19,0,0,1-.3.33.89.89,0,0,1-.44.08h-.33A1.47,1.47,0,0,1,47,82.2a.69.69,0,0,1-.27-.25l-2.11-3q-.12-.18-.18-.18c-.05,0-.08.06-.08.18v7.78a.35.35,0,0,1-.1.24.33.33,0,0,1-.25.11h-1.9A.31.31,0,0,1,41.91,87Z" transform="translate(-3.28 -42.28)"/><path class="cls-1" d="M56.22,87a.21.21,0,0,1,0-.18L59.64,73.7a.44.44,0,0,1,.15-.21.38.38,0,0,1,.24-.09H64.1a.42.42,0,0,1,.23.08.38.38,0,0,1,.16.2L68,86.84v.06c0,.14-.06.21-.2.21H65.84A.43.43,0,0,1,65.6,87a.31.31,0,0,1-.15-.21l-1-3.64a.5.5,0,0,0-.2-.29.55.55,0,0,0-.33-.12H60.17a.55.55,0,0,0-.33.12.49.49,0,0,0-.2.29l-1,3.62a.32.32,0,0,1-.15.22.43.43,0,0,1-.24.09H56.38A.19.19,0,0,1,56.22,87Zm7.14-6.35a.36.36,0,0,0,.3-.14.36.36,0,0,0,.07-.31l-1.1-4a.41.41,0,0,0-.18-.27.54.54,0,0,0-.33-.12H62a.54.54,0,0,0-.33.12.41.41,0,0,0-.18.27l-1.08,4,0,.1a.34.34,0,0,0,.1.25.37.37,0,0,0,.27.1Z" transform="translate(-3.28 -42.28)"/><path class="cls-1" d="M72.58,86.6a4.93,4.93,0,0,1-1.78-1.75,4.59,4.59,0,0,1-.67-2.41V73.78a.36.36,0,0,1,.11-.26.34.34,0,0,1,.24-.11h1.88a.34.34,0,0,1,.24.11.36.36,0,0,1,.11.26v8.66a2.24,2.24,0,0,0,.67,1.63,2.19,2.19,0,0,0,1.62.67,3,3,0,0,0,1.36-.31,2.6,2.6,0,0,0,1-.84,2,2,0,0,0,.37-1.15V73.78a.36.36,0,0,1,.11-.26.34.34,0,0,1,.24-.11H80a.34.34,0,0,1,.24.11.36.36,0,0,1,.11.26v8.66a4.48,4.48,0,0,1-.68,2.42,4.9,4.9,0,0,1-1.9,1.74,5.74,5.74,0,0,1-2.74.64A4.76,4.76,0,0,1,72.58,86.6Z" transform="translate(-3.28 -42.28)"/><path class="cls-1" d="M87.53,87a.26.26,0,0,1-.07-.18V76.24a.45.45,0,0,0-.15-.32.47.47,0,0,0-.34-.15H83.69a.28.28,0,0,1-.24-.23v-1.9a.2.2,0,0,1,.07-.16.24.24,0,0,1,.17-.06H94a.27.27,0,0,1,.2.08.25.25,0,0,1,.08.18v1.84a.24.24,0,0,1-.08.18.26.26,0,0,1-.2.08H90.77a.47.47,0,0,0-.47.47v10.6a.26.26,0,0,1-.07.18.24.24,0,0,1-.19.08H87.72A.24.24,0,0,1,87.53,87Z" transform="translate(-3.28 -42.28)"/><path class="cls-1" d="M97.6,85a6.94,6.94,0,0,1-1.42-2.41l0-.1a6.89,6.89,0,0,1-.35-2.19,7.18,7.18,0,0,1,.41-2.39,6.61,6.61,0,0,1,1.23-2.13A9,9,0,0,1,99.61,74a6.44,6.44,0,0,1,2.79-.71h.06a6.87,6.87,0,0,1,3.21.59,7,7,0,0,1,1.89,1.26,5.83,5.83,0,0,1,1.32,1.65,6.87,6.87,0,0,1,.92,3.48,7,7,0,0,1-.33,2.14,6.9,6.9,0,0,1-1,1.94,7.33,7.33,0,0,1-1.07,1.2,7.2,7.2,0,0,1-1.42,1A6.91,6.91,0,0,1,97.6,85Zm8.51-1.73a4.52,4.52,0,0,0,.76-1.15,4.58,4.58,0,0,0,.39-1.84,4.47,4.47,0,0,0-.7-2.42,4.28,4.28,0,0,0-1.94-1.67,4.61,4.61,0,0,0-1.86-.39,4.45,4.45,0,0,0-1.65.31A4.29,4.29,0,0,0,99.7,77l-.33.35a4.63,4.63,0,0,0-.79,1.39,4.53,4.53,0,0,0,.15,3.41,4.09,4.09,0,0,0,1.19,1.54,4.52,4.52,0,0,0,4.91.59A4.85,4.85,0,0,0,106.11,83.22Z" transform="translate(-3.28 -42.28)"/><g id="_Grupo_" data-name="&lt;Grupo&gt;"><path class="cls-2" d="M116.08,55.65H119l-2.91-7.55-2.91,7.55ZM119,43.15l8.43,20.64H121.9l-1.73-4.66h-8.45L110,63.79h-5.52l6.3-14.94,2.41-5.7Z" transform="translate(-3.28 -42.28)"/><polygon class="cls-2" points="96.53 4.64 96.53 21.51 91.87 21.51 91.87 4.64 85.19 4.64 85.19 0.87 102.92 0.87 102.92 4.64 96.53 4.64"/><path class="cls-2" d="M76.25,46.35c-3.46,0-6.22,3.1-6.1,7a6.5,6.5,0,0,0,6.1,7c3.32-.05,6.08-3.17,6.11-7S79.58,46.34,76.25,46.35Zm11,7a11.29,11.29,0,0,1-11,11,11,11,0,1,1,11-11Z" transform="translate(-3.28 -42.28)"/><polygon class="cls-2" points="61.63 0.87 54.67 11.81 51.17 9.59 56.4 0.87 61.63 0.87"/><polygon class="cls-2" points="46.22 0.87 51.17 9.59 47.67 11.81 40.71 0.87 46.22 0.87"/><polygon class="cls-2" points="53.49 13.66 53.49 21.51 51.17 21.51 48.85 21.51 48.85 13.66 47.67 11.81 51.17 9.59 54.67 11.81 53.49 13.66"/><path class="cls-2" d="M32.93,60.31c3.36-.05,6.11-3.17,6.11-7s-2.75-7-6.11-7-6.17,3.1-6.1,7S29.5,60.26,32.93,60.31Zm0,4.07A11,11,0,1,1,44,53.33,11.27,11.27,0,0,1,32.93,64.38Z" transform="translate(-3.28 -42.28)"/><polygon class="cls-2" points="11.05 4.64 11.05 21.51 6.41 21.51 6.41 4.64 0 4.64 0 0.87 17.46 0.87 17.46 4.64 11.05 4.64"/></g></svg>